<svg id="home-hashtag" xmlns="http://www.w3.org/2000/svg" width="24" height="24" viewBox="0 0 24 24">
  <path id="Vector" d="M7.02.823l-5.39,4.2A4.759,4.759,0,0,0,0,8.343v7.41a4.225,4.225,0,0,0,4.21,4.22H15.79A4.223,4.223,0,0,0,20,15.763V8.483a4.723,4.723,0,0,0-1.8-3.45L12.02.7A4.487,4.487,0,0,0,7.02.823Z" transform="translate(2 2.017)" fill="none" stroke="#fff" stroke-linecap="round" stroke-linejoin="round" stroke-width="1.5"/>
  <path id="Vector-2" data-name="Vector" d="M3,9H6A3.009,3.009,0,0,0,9,6V3A3.009,3.009,0,0,0,6,0H3A3.009,3.009,0,0,0,0,3V6A3.009,3.009,0,0,0,3,9Z" transform="translate(7.5 9)" fill="none" stroke="#fff" stroke-linecap="round" stroke-linejoin="round" stroke-width="1.5"/>
  <path id="Vector-3" data-name="Vector" d="M0,0V9" transform="translate(12 9)" fill="none" stroke="#fff" stroke-linecap="round" stroke-linejoin="round" stroke-width="1.5"/>
  <path id="Vector-4" data-name="Vector" d="M0,0H9" transform="translate(7.5 13.5)" fill="none" stroke="#fff" stroke-linecap="round" stroke-linejoin="round" stroke-width="1.5"/>
  <path id="Vector-5" data-name="Vector" d="M0,0H24V24H0Z" fill="none" opacity="0"/>
</svg>
