<svg xmlns="http://www.w3.org/2000/svg" width="14" height="14" viewBox="0 0 14 14">
  <g id="area" transform="translate(-1 -1)">
    <path id="Path_164266" data-name="Path 164266" d="M12.331,1H3.669A2.674,2.674,0,0,0,1,3.669v8.661A2.674,2.674,0,0,0,3.669,15h8.661A2.674,2.674,0,0,0,15,12.331V3.669A2.674,2.674,0,0,0,12.331,1Zm1.736,11.331a1.741,1.741,0,0,1-1.736,1.736H3.669a1.741,1.741,0,0,1-1.736-1.736V3.669A1.741,1.741,0,0,1,3.669,1.933h8.661a1.741,1.741,0,0,1,1.736,1.736Z"/>
    <path id="Path_164267" data-name="Path 164267" d="M14.867,11.525a.467.467,0,0,0-.467.467v1.75L7.591,6.933h1.75a.467.467,0,0,0,0-.933H6.322A.322.322,0,0,0,6,6.322V9.341a.467.467,0,0,0,.933,0V7.591L13.742,14.4h-1.75a.467.467,0,0,0,0,.933h3.019a.322.322,0,0,0,.322-.322V11.992A.467.467,0,0,0,14.867,11.525Z" transform="translate(-2.667 -2.667)"/>
  </g>
</svg>
