<svg xmlns="http://www.w3.org/2000/svg"
  xmlns:xlink="http://www.w3.org/1999/xlink" width="88" height="88" viewBox="0 0 88 88">
  <defs>
    <clipPath id="clip-path">
      <path id="path3255" d="M0-682.665H88v88H0Z" transform="translate(0 682.665)"/>
    </clipPath>
  </defs>
  <g id="g3249" transform="translate(0 682.665)">
    <g id="g3251" transform="translate(0 -682.665)">
      <g id="g3253" clip-path="url(#clip-path)">
        <g id="g3259" transform="translate(9.625 1.718)">
          <path id="path3261" d="M-104.534-116.149a1.724,1.724,0,0,0,1.719-1.719v-15.469L-120-116.149Z" transform="translate(120.004 133.337)" fill="#b6cdd8" fill-rule="evenodd"/>
        </g>
        <g id="g3263" transform="translate(9.625 1.718)">
          <path id="path3265" d="M-116.149-104.534a1.724,1.724,0,0,1-1.719,1.719h-15.469v58.781a1.724,1.724,0,0,0,1.719,1.719h58.438a1.724,1.724,0,0,0,1.719-1.719v-74.25A1.724,1.724,0,0,0-73.181-120h-42.968Z" transform="translate(133.337 120.004)" fill="#fff" fill-rule="evenodd"/>
        </g>
        <g id="g3267" transform="translate(44 51.906)">
          <path id="path3269" d="M-23.229,0h27.5A3.448,3.448,0,0,1,7.708,3.437v27.5a3.448,3.448,0,0,1-3.437,3.438h-27.5a3.448,3.448,0,0,1-3.438-3.438V3.437A3.448,3.448,0,0,1-23.229,0" transform="translate(26.667 0)" fill="#e8002a" fill-rule="evenodd"/>
        </g>
        <g id="g3271" transform="translate(52.889 60.795)">
          <path id="path3273" d="M-6.8-39.655a3.437,3.437,0,0,1,0-4.861,3.437,3.437,0,0,1,4.861,0l2.431,2.43,2.431-2.43a3.437,3.437,0,0,1,4.861,0,3.438,3.438,0,0,1,0,4.861L5.349-37.224,7.78-34.793a3.438,3.438,0,0,1,0,4.861,3.437,3.437,0,0,1-4.861,0L.488-32.363l-2.431,2.43a3.437,3.437,0,0,1-4.861,0,3.437,3.437,0,0,1,0-4.861l2.431-2.431Z" transform="translate(7.811 45.523)" fill="#fff" fill-rule="evenodd"/>
        </g>
        <g id="g3275" transform="translate(9.625 1.718)">
          <path id="path3277" d="M-231.2-523.979H-263.69a2.722,2.722,0,0,1-2.719-2.719v-58.781a1,1,0,0,1,.293-.707l17.188-17.188a1,1,0,0,1,.707-.293h42.968a2.722,2.722,0,0,1,2.719,2.719v48.3a1,1,0,0,1-1,1,1,1,0,0,1-1-1v-48.3a.728.728,0,0,0-.719-.719h-42.554l-16.6,16.6V-526.7a.728.728,0,0,0,.719.719H-231.2a1,1,0,0,1,1,1A1,1,0,0,1-231.2-523.979Z" transform="translate(265.409 602.667)"/>
        </g>
        <g id="g3279" transform="translate(11.344 3.437)">
          <path id="path3281" d="M-106.252,16.469H-120a1,1,0,0,1-1-1,1,1,0,0,1,1-1h13.75a.728.728,0,0,0,.719-.719V0a1,1,0,0,1,1-1,1,1,0,0,1,1,1V13.75A2.722,2.722,0,0,1-106.252,16.469Z" transform="translate(120.002)"/>
        </g>
        <g id="g3295" transform="translate(19.937 49.845)">
          <path id="path3297" d="M17.187,1H0A1,1,0,0,1-1,0,1,1,0,0,1,0-1H17.187a1,1,0,0,1,1,1A1,1,0,0,1,17.187,1Z"/>
        </g>
        <g id="g3299" transform="translate(19.937 57.579)">
          <path id="path3301" d="M10.313,1H0A1,1,0,0,1-1,0,1,1,0,0,1,0-1H10.313a1,1,0,0,1,1,1A1,1,0,0,1,10.313,1Z"/>
        </g>
        <g id="g3307" transform="translate(52.889 60.795)">
          <path id="path3309" d="M-4.373-46.523a4.408,4.408,0,0,1,3.138,1.3L.488-43.5l1.724-1.723a4.409,4.409,0,0,1,3.138-1.3,4.409,4.409,0,0,1,3.138,1.3,4.443,4.443,0,0,1,0,6.275L6.763-37.224,8.487-35.5a4.443,4.443,0,0,1,0,6.276,4.409,4.409,0,0,1-3.138,1.3,4.409,4.409,0,0,1-3.138-1.3L.488-30.948l-1.724,1.723a4.408,4.408,0,0,1-3.138,1.3,4.409,4.409,0,0,1-3.138-1.3,4.408,4.408,0,0,1-1.3-3.138,4.409,4.409,0,0,1,1.3-3.138l1.724-1.724-1.724-1.724a4.409,4.409,0,0,1-1.3-3.138,4.408,4.408,0,0,1,1.3-3.138A4.408,4.408,0,0,1-4.373-46.523ZM.488-41.086a1,1,0,0,1-.707-.293l-2.431-2.43a2.421,2.421,0,0,0-1.724-.714,2.422,2.422,0,0,0-1.724.714,2.421,2.421,0,0,0-.714,1.723A2.422,2.422,0,0,0-6.1-40.362l2.431,2.431a1,1,0,0,1,0,1.414L-6.1-34.086a2.422,2.422,0,0,0-.714,1.724A2.421,2.421,0,0,0-6.1-30.639a2.422,2.422,0,0,0,1.724.714,2.421,2.421,0,0,0,1.723-.714L-.219-33.07a1,1,0,0,1,1.414,0l2.431,2.43a2.422,2.422,0,0,0,1.724.714,2.422,2.422,0,0,0,1.724-.714,2.44,2.44,0,0,0,0-3.447L4.642-36.517a1,1,0,0,1-.293-.707,1,1,0,0,1,.293-.707l2.431-2.431a2.44,2.44,0,0,0,0-3.447,2.422,2.422,0,0,0-1.724-.714,2.422,2.422,0,0,0-1.724.714L1.195-41.378A1,1,0,0,1,.488-41.086Z" transform="translate(7.811 45.523)"/>
        </g>
        <g id="g3311" transform="translate(44 51.906)">
          <path id="path3313" d="M-23.229-1h27.5A4.443,4.443,0,0,1,8.708,3.438v27.5a4.443,4.443,0,0,1-4.437,4.437h-27.5a4.443,4.443,0,0,1-4.437-4.437V3.438A4.443,4.443,0,0,1-23.229-1Zm27.5,34.375a2.44,2.44,0,0,0,2.438-2.437V3.438A2.44,2.44,0,0,0,4.271,1h-27.5a2.44,2.44,0,0,0-2.437,2.437v27.5a2.44,2.44,0,0,0,2.438,2.437Z" transform="translate(26.667 0)"/>
        </g>
        <g id="megaphone_1_" data-name="megaphone (1)" transform="translate(31.934 13.124)">
          <g id="Group_62598" data-name="Group 62598" transform="translate(0 1.023)">
            <g id="Group_62597" data-name="Group 62597">
              <path id="Path_165025" data-name="Path 165025" d="M53.15,28.895,44.058,19.8a2.411,2.411,0,0,0-3.7,3.054l-.013.063a16.822,16.822,0,0,1-4.615,8.624l-4.17,4.17a2.409,2.409,0,0,0,0,3.41L33.829,41.4a2.41,2.41,0,0,0,3.41,0l.568-.568,3.978,3.978a2.411,2.411,0,0,0,3.41-3.41l-1.7-1.7.568-.568a2.409,2.409,0,0,0,0-3.41l-.386-.386a16.825,16.825,0,0,1,6.361-2.717L50.1,32.6A2.414,2.414,0,0,0,53.15,32.3h0A2.414,2.414,0,0,0,53.15,28.895ZM36.1,40.26a.8.8,0,0,1-1.137,0l-2.273-2.273a.8.8,0,0,1,0-1.136l3.978-3.978,3.41,3.41Zm7.956,2.273a.8.8,0,1,1-1.137,1.136l-3.978-3.978,1.137-1.137Zm-2.841-5.114c.242-.242.6-.612,1.174-1.1l.531.531a.8.8,0,0,1,0,1.136l-.568.568Zm.034-2.239L37.773,31.7a18.4,18.4,0,0,0,3.913-7.453L48.7,31.267A18.4,18.4,0,0,0,41.251,35.18Zm10.763-4.012a.8.8,0,0,1-1.136,0l-9.092-9.092a.8.8,0,0,1,1.137-1.137l9.092,9.092A.8.8,0,0,1,52.013,31.168Z" transform="translate(-30.849 -19.098)"/>
            </g>
          </g>
          <g id="Group_62600" data-name="Group 62600" transform="translate(3.881 17.404)">
            <g id="Group_62599" data-name="Group 62599" transform="translate(0)">
              <path id="Path_165026" data-name="Path 165026" d="M105.774,325a.8.8,0,0,0-1.137,0l-1.136,1.137a.8.8,0,1,0,1.136,1.137l1.137-1.137A.8.8,0,0,0,105.774,325Z" transform="translate(-103.266 -324.762)"/>
            </g>
          </g>
          <g id="Group_62602" data-name="Group 62602" transform="translate(16.096)">
            <g id="Group_62601" data-name="Group 62601">
              <path id="Path_165027" data-name="Path 165027" d="M332,0a.8.8,0,0,0-.8.8V2.411a.8.8,0,0,0,1.607,0V.8A.8.8,0,0,0,332,0Z" transform="translate(-331.194 0)"/>
            </g>
          </g>
          <g id="Group_62604" data-name="Group 62604" transform="translate(20.918 6.429)">
            <g id="Group_62603" data-name="Group 62603">
              <path id="Path_165028" data-name="Path 165028" d="M423.58,119.966h-1.607a.8.8,0,0,0,0,1.607h1.607a.8.8,0,0,0,0-1.607Z" transform="translate(-421.169 -119.966)"/>
            </g>
          </g>
          <g id="Group_62606" data-name="Group 62606" transform="translate(19.31 1.607)">
            <g id="Group_62605" data-name="Group 62605">
              <path id="Path_165029" data-name="Path 165029" d="M394.157,30.226a.8.8,0,0,0-1.137,0l-1.607,1.607a.8.8,0,1,0,1.137,1.136l1.607-1.607A.8.8,0,0,0,394.157,30.226Z" transform="translate(-391.178 -29.991)"/>
            </g>
          </g>
        </g>
      </g>
    </g>
  </g>
</svg>
