<svg id="stairs-with-handrail" xmlns="http://www.w3.org/2000/svg" width="20" height="18.381" viewBox="0 0 20 18.381">
  <g id="Group_62689" data-name="Group 62689" transform="translate(0 0)">
    <g id="Group_62688" data-name="Group 62688">
      <path id="Path_165156" data-name="Path 165156" d="M93.989,95.645H90.335a1.016,1.016,0,0,0-1.016,1.016V99.3H86.681a1.016,1.016,0,0,0-1.016,1.016v2.638H83.027a1.016,1.016,0,0,0-1.016,1.016v2.765H79.246a1.015,1.015,0,0,0-1.016,1.016v2.126a1.016,1.016,0,0,0,1.016,1.017H93.989A1.016,1.016,0,0,0,95,109.876V96.661A1.016,1.016,0,0,0,93.989,95.645Z" transform="translate(-75.005 -92.512)" fill="#116a92"/>
      <path id="Path_165157" data-name="Path 165157" d="M13.635,19.846a.677.677,0,0,0-.958-.012C8.331,24.067,4.2,28.2.2,32.2a.679.679,0,0,0-.2.479v4.637a.678.678,0,1,0,1.355,0V32.96c3.933-3.934,8-8,12.268-12.156A.678.678,0,0,0,13.635,19.846Z" transform="translate(0 -19.641)" fill="#116a92" opacity="0.4"/>
    </g>
  </g>
</svg>
