<svg xmlns="http://www.w3.org/2000/svg" width="40" height="40" viewBox="0 0 40 40">
  <g id="Group_62608" data-name="Group 62608" transform="translate(-23.668 -241)">
    <circle id="Ellipse_9104" data-name="Ellipse 9104" cx="20" cy="20" r="20" transform="translate(23.668 241)" fill="rgba(8,117,86,0.2)"/>
    <g id="eye" transform="translate(32.212 249.462)">
      <path id="Path_165030" data-name="Path 165030" d="M11.778,15.887a4.109,4.109,0,1,1,4.109-4.109A4.11,4.11,0,0,1,11.778,15.887Zm0-6.794a2.685,2.685,0,1,0,2.685,2.685A2.689,2.689,0,0,0,11.778,9.093Z" transform="translate(-0.318 -0.24)" fill="#087556"/>
      <path id="Path_165031" data-name="Path 165031" d="M11.461,20.1c-3.568,0-6.936-2.087-9.251-5.712a5.748,5.748,0,0,1,0-5.693C4.534,5.067,7.9,2.98,11.461,2.98S18.388,5.067,20.7,8.692a5.748,5.748,0,0,1,0,5.693C18.388,18.01,15.019,20.1,11.461,20.1Zm0-15.694c-3.065,0-6,1.841-8.046,5.057a4.312,4.312,0,0,0,0,4.156c2.05,3.217,4.982,5.057,8.046,5.057s6-1.841,8.046-5.057a4.312,4.312,0,0,0,0-4.156C17.458,6.244,14.526,4.4,11.461,4.4Z" transform="translate(0 0)" fill="#087556"/>
    </g>
  </g>
</svg>
