<svg xmlns="http://www.w3.org/2000/svg" width="32.787" height="32.787" viewBox="0 0 32.787 32.787">
  <g id="Icon_feather-plus" data-name="Icon feather-plus" transform="translate(-6.339 -6.33)">
    <path id="Path_164623" data-name="Path 164623" d="M18.615,39.287A1.845,1.845,0,0,1,17,37.279V8.509A1.845,1.845,0,0,1,18.615,6.5,1.845,1.845,0,0,1,20.23,8.509v28.77A1.845,1.845,0,0,1,18.615,39.287Z" transform="translate(4.077 -0.17)" fill="#363a3d"/>
    <path id="Path_164624" data-name="Path 164624" d="M37.279,19.993H8.509c-1.11,0-2.009-.67-2.009-1.5S7.4,17,8.509,17h28.77c1.11,0,2.009.67,2.009,1.5S38.388,19.993,37.279,19.993Z" transform="translate(-0.161 4.067)" fill="#363a3d"/>
  </g>
</svg>
