<svg xmlns="http://www.w3.org/2000/svg" xmlns:xlink="http://www.w3.org/1999/xlink" width="24" height="24" viewBox="0 0 24 24">
  <defs>
    <clipPath id="clip-path">
      <rect id="Rectangle_24944" data-name="Rectangle 24944" width="24" height="24" transform="translate(-3758 9276)" fill="#116a92"/>
    </clipPath>
  </defs>
  <g id="Tent" transform="translate(3758 -9276)" clip-path="url(#clip-path)">
    <g id="_x31_40" transform="translate(-3757.252 9271.611)">
      <path id="Path_164277" data-name="Path 164277" d="M22.188,25.674a12.353,12.353,0,0,0-.639,4.841.229.229,0,0,0,.213.213,98.129,98.129,0,0,0,9.987-.853c.061,0,.122-.061.183-.091.091-.122,0-.244-.03-.335a15.542,15.542,0,0,0-1.34-3.045,11.231,11.231,0,0,0-1.918-2.771C26.238,21.381,23.5,22.569,22.188,25.674Zm-.183,4.6a13.63,13.63,0,0,1,.244-3.075l5.511-.518a.274.274,0,0,1,.152.03,28.385,28.385,0,0,1,3.319,2.8C28.125,29.815,25.081,30.242,22.005,30.272Zm8.221-3.562a16.544,16.544,0,0,1,.974,2.131,33.473,33.473,0,0,0-3.045-2.527l-.03-.03.03-2.5A9.6,9.6,0,0,1,30.226,26.71Zm-2.5-3.227-.061,2.74-5.328.518c.091-.3.183-.609.274-.853.518-1.279,1.614-2.71,3.045-2.923A2.955,2.955,0,0,1,27.73,23.482Z" transform="translate(-14.09 -9.585)" fill="#116a92"/>
      <path id="Path_164278" data-name="Path 164278" d="M47.026,8.835l-.244.883a.222.222,0,0,0,.426.122l.244-.883a.222.222,0,0,0-.426-.122Z" transform="translate(-31.649)" fill="#116a92"/>
      <path id="Path_164279" data-name="Path 164279" d="M51.04,9.544a.239.239,0,0,0-.335,0,4.429,4.429,0,0,0-.761,1.1.225.225,0,1,0,.4.213,3.788,3.788,0,0,1,.7-.974A.215.215,0,0,0,51.04,9.544Z" transform="translate(-33.835 -0.557)" fill="#116a92"/>
      <path id="Path_164280" data-name="Path 164280" d="M52.261,15.661a2.927,2.927,0,0,0,.853-.335.225.225,0,0,0-.213-.4,3.011,3.011,0,0,1-.731.274.237.237,0,0,0-.183.274A.216.216,0,0,0,52.261,15.661Z" transform="translate(-35.268 -4.33)" fill="#116a92"/>
      <path id="Path_164281" data-name="Path 164281" d="M1.419,20.594a.218.218,0,0,0,.274-.152.106.106,0,0,1,.03-.061c.091.3-.091-.366.853,2.53a21.326,21.326,0,0,0,.762,2.225,1.1,1.1,0,0,0-.061.335.237.237,0,0,0,.183.274h.061a.2.2,0,0,0,.213-.183.433.433,0,0,1,.061-.183c5.668-.579,11.367-1.128,17.036-1.707a.225.225,0,0,0,.274.122.214.214,0,0,0,.122-.3,35.587,35.587,0,0,0-5.242-9.3c-1.189-1.524-2.682-3.048-4.6-3.109-.03,0-.061-.03-.091-.03A7.219,7.219,0,0,0,7.483,12C4.832,13.249,3.156,15.718,2,18.43L1.358,19.8a.94.94,0,0,0-.061.7.163.163,0,0,0,.122.091Zm.67-1.006c0-.03-.03-.03-.03-.061a15.459,15.459,0,0,1,4.632-6.461,7.415,7.415,0,0,1,1.432-.853,2.873,2.873,0,0,0,.335.518,9.236,9.236,0,0,0-.731,1.158A39.749,39.749,0,0,0,3.674,23.947C3.064,22.118,2.333,20.2,2.089,19.588ZM8.7,12.335c-.091-.122-.152-.244-.213-.335a4.346,4.346,0,0,1,.823-.274C9.1,11.908,8.916,12.122,8.7,12.335Zm6.918,2.133a36,36,0,0,1,4.907,8.5l-10.209.945c-6.552.61-5.577.853-6.4.792A40.92,40.92,0,0,1,8.093,14.072a11.006,11.006,0,0,1,.7-1.1,6,6,0,0,0,5.089-.366,12.341,12.341,0,0,1,1.737,1.859Zm-2.133-2.133a5.66,5.66,0,0,1-4.419.3,3.732,3.732,0,0,1,.823-.731A3.226,3.226,0,0,1,13.487,12.335Z" transform="translate(0 -1.642)" fill="#116a92"/>
    </g>
  </g>
</svg>
