<svg id="terms" xmlns="http://www.w3.org/2000/svg" width="24" height="24" viewBox="0 0 24 24">
  <rect id="Rectangle_25021" data-name="Rectangle 25021" width="24" height="24" rx="4" fill="#dc8035"/>
  <g id="accept" transform="translate(3.395 2.559)">
    <path id="Path_164493" data-name="Path 164493" d="M65.425,98.637H62.284a.526.526,0,1,0,0,1.053h3.141a.526.526,0,0,0,0-1.053Zm0,0" transform="translate(-59.591 -95.176)" fill="#fff"/>
    <path id="Path_164494" data-name="Path 164494" d="M65.425,158.641H62.284a.526.526,0,1,0,0,1.053h3.141a.526.526,0,1,0,0-1.053Zm0,0" transform="translate(-59.591 -153.075)" fill="#fff"/>
    <path id="Path_164495" data-name="Path 164495" d="M65.425,218.645H62.284a.526.526,0,1,0,0,1.053h3.141a.526.526,0,1,0,0-1.053Zm0,0" transform="translate(-59.591 -210.974)" fill="#fff"/>
    <path id="Path_164496" data-name="Path 164496" d="M65.425,278.648H62.284a.526.526,0,0,0,0,1.053h3.141a.526.526,0,0,0,0-1.053Zm0,0" transform="translate(-59.591 -268.871)" fill="#fff"/>
    <path id="Path_164497" data-name="Path 164497" d="M65.425,339.656H62.284a.526.526,0,0,0,0,1.053h3.141a.526.526,0,0,0,0-1.053Zm0,0" transform="translate(-59.591 -327.739)" fill="#fff"/>
    <path id="Path_164498" data-name="Path 164498" d="M202.182,99.69h3.141a.526.526,0,0,0,0-1.053h-3.141a.526.526,0,1,0,0,1.053Zm0,0" transform="translate(-194.581 -95.176)" fill="#fff"/>
    <path id="Path_164499" data-name="Path 164499" d="M202.182,159.694h3.141a.526.526,0,0,0,0-1.053h-3.141a.526.526,0,1,0,0,1.053Zm0,0" transform="translate(-194.581 -153.075)" fill="#fff"/>
    <path id="Path_164500" data-name="Path 164500" d="M204.221,219.171a.526.526,0,0,0-.526-.526h-1.513a.526.526,0,1,0,0,1.053h1.513A.526.526,0,0,0,204.221,219.171Zm0,0" transform="translate(-194.581 -210.974)" fill="#fff"/>
    <path id="Path_164501" data-name="Path 164501" d="M313.2,342.8a.526.526,0,0,0-.74.081l-1.355,1.69-.839-.608a.526.526,0,1,0-.618.852l1.245.9a.526.526,0,0,0,.719-.1l1.669-2.081A.526.526,0,0,0,313.2,342.8Zm0,0" transform="translate(-298.576 -330.664)" fill="#fff"/>
    <path id="Path_164502" data-name="Path 164502" d="M15.956,10.523a4.34,4.34,0,0,0-2.521-1.267V2.119A2.122,2.122,0,0,0,11.316,0H2.12A2.122,2.122,0,0,0,0,2.119V14.31a2.122,2.122,0,0,0,2.12,2.12h7.4a4.332,4.332,0,0,0,3.324,1.533,4.374,4.374,0,0,0,3.116-7.44ZM1.053,14.31V2.119A1.068,1.068,0,0,1,2.12,1.052h9.2a1.068,1.068,0,0,1,1.067,1.067V9.239A4.377,4.377,0,0,0,8.85,15.377H2.12A1.068,1.068,0,0,1,1.053,14.31Zm11.787,2.6a3.321,3.321,0,0,1,0-6.642h.06a3.321,3.321,0,0,1-.06,6.642Zm0,0" transform="translate(0 0.001)" fill="#fff"/>
  </g>
</svg>
