<svg xmlns="http://www.w3.org/2000/svg" xmlns:xlink="http://www.w3.org/1999/xlink" width="24" height="24" viewBox="0 0 24 24">
  <defs>
    <clipPath id="clip-path">
      <rect id="Rectangle_24953" data-name="Rectangle 24953" width="24" height="24" transform="translate(-2781 8866)" fill="#116a92"/>
    </clipPath>
  </defs>
  <g id="Villa" transform="translate(2781 -8866)" clip-path="url(#clip-path)">
    <g id="house_1_" data-name="house (1)" transform="translate(-2787 8859.997)">
      <path id="Path_164312" data-name="Path 164312" d="M27.677,26.389H26.71V18.648h.323a.323.323,0,0,0,.323-.323v-.968a.323.323,0,0,0-.323-.323H26.71V11.943l.516.226a.323.323,0,0,0,.452-.3v-1.29a.323.323,0,0,0-.193-.3L22.323,8.029a.325.325,0,0,0-.259,0L16.9,10.287a.323.323,0,0,0-.193.3v1.29a.323.323,0,0,0,.452.3l.516-.226v1.866H8.968a.323.323,0,0,0-.323.323V15.1a.323.323,0,0,0,.323.323h.968v1.613H8.968a.323.323,0,0,0-.323.323v.968a.323.323,0,0,0,.323.323H9.29v7.742H8.323A.323.323,0,0,0,8,26.712v.968A.323.323,0,0,0,8.323,28H27.677A.323.323,0,0,0,28,27.68v-.968A.323.323,0,0,0,27.677,26.389ZM17.355,11.38v-.586l4.839-2.117,4.839,2.117v.586l-.519-.227h0L22.323,9.32a.324.324,0,0,0-.259,0l-4.189,1.833h0Zm8.71.281v5.374H18.323V11.661l3.871-1.694ZM9.29,14.777v-.323h8.387v.323Zm8.387.645v1.613h-1.29V15.422Zm-1.935,0v1.613h-1.29V15.422Zm-1.935,0v1.613h-1.29V15.422Zm-1.935,0v1.613h-1.29V15.422ZM9.29,17.68H26.71V18H9.29Zm12.581,4.194h-2.9a.323.323,0,0,0-.323.323v4.194h-.323V18.648h7.742v7.742H22.194V22.2A.323.323,0,0,0,21.871,21.873Zm-.323.645v3.871H19.29V22.519ZM17.032,20.26H10.581a.323.323,0,0,0-.323.323v.968a.323.323,0,0,0,.323.323v4.516H9.935V18.648h7.742v7.742h-.645V21.873a.323.323,0,0,0,.323-.323v-.968A.323.323,0,0,0,17.032,20.26Zm-6.129.968v-.323H16.71v.323Zm5.484.645v4.516H11.226V21.873Zm10.968,5.484H8.645v-.323h18.71Z" transform="translate(0 0)" fill="#116a92" stroke="#fff" stroke-width="0.1"/>
      <path id="Path_164313" data-name="Path 164313" d="M368.326,354.936h2.61a.326.326,0,0,0,.326-.326v-2.283a.326.326,0,0,0-.326-.326h-2.61a.326.326,0,0,0-.326.326v2.283A.326.326,0,0,0,368.326,354.936Zm.326-2.283h1.957v1.631h-1.957Z" transform="translate(-345.546 -330.153)" fill="#116a92" stroke="#fff" stroke-width="0.1"/>
      <path id="Path_164314" data-name="Path 164314" d="M368.326,114.936h2.61a.326.326,0,0,0,.326-.326v-2.283a.326.326,0,0,0-.326-.326h-2.61a.326.326,0,0,0-.326.326v2.283A.326.326,0,0,0,368.326,114.936Zm.326-2.283h1.957v1.631h-1.957Z" transform="translate(-345.546 -99.812)" fill="#116a92" stroke="#fff" stroke-width="0.1"/>
      <path id="Path_164315" data-name="Path 164315" d="M272.326,114.936h2.61a.326.326,0,0,0,.326-.326v-2.283a.326.326,0,0,0-.326-.326h-2.61a.326.326,0,0,0-.326.326v2.283A.326.326,0,0,0,272.326,114.936Zm.326-2.283h1.957v1.631h-1.957Z" transform="translate(-253.378 -99.812)" fill="#116a92" stroke="#fff" stroke-width="0.1"/>
      <path id="Path_164316" data-name="Path 164316" d="M320.326,401.3a.326.326,0,0,0,.326-.326v-.652a.326.326,0,1,0-.652,0v.652A.326.326,0,0,0,320.326,401.3Z" transform="translate(-299.424 -376.364)" fill="#116a92" stroke="#fff" stroke-width="0.1"/>
    </g>
  </g>
</svg>
